<?xml version="1.0" standalone="no"?>
<!DOCTYPE svg PUBLIC "-//W3C//DTD SVG 20010904//EN"
 "http://www.w3.org/TR/2001/REC-SVG-20010904/DTD/svg10.dtd">
<svg version="1.0" xmlns="http://www.w3.org/2000/svg"
 width="800.000000pt" height="800.000000pt" viewBox="0 0 800.000000 800.000000"
 preserveAspectRatio="xMidYMid meet">
<metadata>
Created by potrace 1.11, written by Peter Selinger 2001-2013
</metadata>
<g transform="translate(0.000000,800.000000) scale(0.100000,-0.100000)"
fill="#000000" stroke="none">
<path d="M3655 6289 c-355 -21 -778 -192 -1074 -436 -31 -26 -103 -95 -161
-154 -263 -268 -423 -571 -516 -974 -26 -114 -27 -132 -27 -375 0 -310 15
-409 105 -675 35 -106 143 -329 193 -400 97 -138 107 -154 101 -172 -4 -10
-133 -101 -288 -203 -155 -102 -322 -211 -371 -244 -49 -32 -93 -69 -100 -83
-10 -22 -5 -30 59 -94 62 -64 235 -214 340 -296 146 -114 448 -265 699 -350
287 -97 517 -131 900 -131 279 0 492 30 770 108 305 86 657 270 920 481 126
101 338 316 422 430 248 331 413 717 468 1093 28 195 20 641 -15 801 -22 103
-29 108 -55 38 -26 -72 -111 -230 -163 -302 -62 -88 -184 -209 -295 -293 -108
-82 -318 -171 -478 -204 -118 -24 -421 -15 -534 16 -96 26 -221 73 -254 96
-22 16 -23 21 -17 84 10 112 78 277 162 390 65 89 177 197 259 251 39 25 124
81 190 124 66 43 163 106 215 140 52 34 140 91 195 127 92 60 299 195 757 496
284 187 441 296 440 307 -1 15 -122 43 -205 48 -100 5 -195 -7 -317 -42 -73
-22 -108 -27 -125 -21 -56 21 -277 31 -420 18 -226 -19 -489 -154 -655 -335
-70 -77 -124 -156 -205 -303 -84 -153 -146 -238 -246 -339 -157 -158 -340
-278 -510 -336 -40 -14 -74 -25 -76 -25 -11 0 -65 137 -88 220 -36 131 -45
351 -21 495 63 371 253 650 591 870 62 40 115 77 119 83 9 15 -41 29 -186 52
-138 22 -330 29 -503 19z"/>
</g>
</svg>
